# xmcd
#
# Track frame offsets: 
#        150
#        25848
#        38298
#        48176
#        60863
#        73051
#        85653
#        99869
#        111436
#        121744
#        134724
#        145659
#        156406
#        169144
#        178290
#        189690
#        200532
#        212496
#        225048
#        238662
#        251011
#
# Disc length: 3549 seconds
#
# Revision: 0
# Processed by: cddbd v1.5.2PL0 Copyright (c) Steve Scherf et al.
# Submitted via: ExactAudioCopy v1.0b3
#
DISCID=180ddb15
DTITLE=Blues Various - Best of Blues
DYEAR=1900
DGENRE=Blues
TTITLE0=Wynonie Harris - Around the Clock Pt. 1 and 2
TTITLE1=Wynonie Harris - Yonder goes my baby
TTITLE2=Wynonie Harris - Don't take my Wiskey away from me
TTITLE3=Wynonie Harris - Cock-A-Doodle-Doo
TTITLE4=Wynonie Harris - You got to get yourself a job, girl
TTITLE5=Wynonie Harris - Luscious woman
TTITLE6=Earl Hooker - Sweet Black Angel
TTITLE7=Earl Hooker - Earl's Boogie Woogie
TTITLE8=Earl Hooker - Goin' down the line
TTITLE9=Earl Hooker - Guitar rag
TTITLE10=Screamin' Jay Hawkins - I put a Spell on You
TTITLE11=Screamin' Jay Hawkins - Yellow Coat
TTITLE12=Screamin' Jay Hawkins - If you are but a dream
TTITLE13=Screamin' Jay Hawkins - You Made Me Love
TTITLE14=Screamin' Jay Hawkins - The Whammy
TTITLE15=Screamin' Jay Hawkins - Little Demon
TTITLE16=Ray Charles - The Sun's Gonna Shine Again
TTITLE17=Ray Charles - Jumpin' in the Morning
TTITLE18=Ray Charles - The Midnight Hour
TTITLE19=Ray Charles - It Should Have Been Me
TTITLE20=Ray Charles - Sinner's Prayer
EXTD=
EXTT0=
EXTT1=
EXTT2=
EXTT3=
EXTT4=
EXTT5=
EXTT6=
EXTT7=
EXTT8=
EXTT9=
EXTT10=
EXTT11=
EXTT12=
EXTT13=
EXTT14=
EXTT15=
EXTT16=
EXTT17=
EXTT18=
EXTT19=
EXTT20=
PLAYORDER=
